inDegrees=no
num_controls=7
num_derivatives=13
num_iterations=132
num_multipliers=7
num_parameters=0
num_slacks=7
num_states=26
objective=5.009387
objective_accelerations=0.666435
objective_balance=0.024270
objective_effort=0.220411
objective_height=3.977697
objective_ligament=0.120574
solver_duration=1477.937492
status=Solve_Succeeded
success=true
DataType=double
version=3
OpenSimVersion=4.4-2022-07-23-0e9fedc
endheader
time	/jointset/ground_pelvis/pelvis_tilt/value	/jointset/ground_pelvis/pelvis_tx/value	/jointset/ground_pelvis/pelvis_ty/value	/jointset/hip_l/hip_flexion_l/value	/jointset/hip_l/hip_adduction_l/value	/jointset/hip_l/hip_rotation_l/value	/jointset/back/lumbar_extension/value	/jointset/patellofemoral_l/patellar_flexion_l/value	/jointset/knee_l/knee_flexion_l/value	/jointset/knee_l/knee_adduction_l/value	/jointset/knee_l/knee_rotation_l/value	/jointset/ankle_l/ankle_angle_l/value	/jointset/subtalar_l/subtalar_angle_l/value	/jointset/ground_pelvis/pelvis_tilt/speed	/jointset/ground_pelvis/pelvis_tx/speed	/jointset/ground_pelvis/pelvis_ty/speed	/jointset/hip_l/hip_flexion_l/speed	/jointset/hip_l/hip_adduction_l/speed	/jointset/hip_l/hip_rotation_l/speed	/jointset/back/lumbar_extension/speed	/jointset/patellofemoral_l/patellar_flexion_l/speed	/jointset/knee_l/knee_flexion_l/speed	/jointset/knee_l/knee_adduction_l/speed	/jointset/knee_l/knee_rotation_l/speed	/jointset/ankle_l/ankle_angle_l/speed	/jointset/subtalar_l/subtalar_angle_l/speed	/forceset/tau_hip_flexion_l	/forceset/tau_hip_adduction_l	/forceset/tau_hip_rotation_l	/forceset/tau_knee_flexion_l	/forceset/tau_ankle_angle_l	/forceset/tau_subtalar_angle_l	/forceset/tau_lumbar_extension	lambda_cid13_p0	lambda_cid13_p1	lambda_cid13_p2	lambda_cid13_p3	lambda_cid13_p4	lambda_cid13_p5	lambda_cid14_p0	/jointset/ground_pelvis/pelvis_tilt/accel	/jointset/ground_pelvis/pelvis_tx/accel	/jointset/ground_pelvis/pelvis_ty/accel	/jointset/hip_l/hip_flexion_l/accel	/jointset/hip_l/hip_adduction_l/accel	/jointset/hip_l/hip_rotation_l/accel	/jointset/back/lumbar_extension/accel	/jointset/patellofemoral_l/patellar_flexion_l/accel	/jointset/knee_l/knee_flexion_l/accel	/jointset/knee_l/knee_adduction_l/accel	/jointset/knee_l/knee_rotation_l/accel	/jointset/ankle_l/ankle_angle_l/accel	/jointset/subtalar_l/subtalar_angle_l/accel	gamma_cid13_p0	gamma_cid13_p1	gamma_cid13_p2	gamma_cid13_p3	gamma_cid13_p4	gamma_cid13_p5	gamma_cid14_p0
1	-0.8008944610193617	-0.1636531539176663	0.6083439834356479	2.016619073188601	-0.3337651469464263	0.05154691880313586	-0.4363297119733507	1.085702112379628	1.085702112378348	0.0006337739245014381	-0.174528800111505	0.00151344898426879	0.0870768295887788	-0.1613718307135853	0.006502634489907507	0.03234863208073191	0.01254798259161582	-0.004263045154788861	-0.06175003672287099	-1.045530191000891e-05	-0.1700698201424441	-0.1700698201424662	-0.003821747777181199	1.322542801701085e-06	-0.03318714603259754	-0.01350772704356917	-0.3695829021130951	-0.01196322071241297	-0.005803430684761328	-0.149686199906494	0.1322592630311075	0.02186119253870419	0.2762885092581108	12.30344244433972	-7.545522297448345	-3.764702941086474	-8.624221806337447	-546.0055674147746	-73.37632961966337	-1.608755649759374	3.050166237879183	0.7628261263498628	1.831257294461898	-7.639108021339102	-0.2143594398182564	-1.36137878835127	-0.02864970583798762	-3.93683485156747	-3.936834851567502	-0.3117230839041574	-0.02349831465262183	0.396516212829869	-0.08305036443843443	-1.10301784190544e-08	-5.44495375632147e-08	1.191454829604854e-08	2.02364971532784e-09	-9.044453851264003e-09	3.190406027606371e-08	-1.45985575736991e-08
1.01	-0.802356687173573	-0.1635500509849196	0.6087587875633764	2.016363947919866	-0.3338176948381146	0.05086192395783922	-0.4363298998178918	1.08380461877476	1.083804618774117	0.0005806508380300069	-0.1745287842969293	0.001201232563259673	0.08693836051143644	-0.1310570964184481	0.01412426507335318	0.05059955378091631	-0.06356263388535832	-0.006237772741640788	-0.07524186736142253	-2.327359104729668e-05	-0.2094174394772841	-0.2094174394772833	-0.006801315643410315	2.400963617482179e-06	-0.02927029432441936	-0.01418150679361166	-0.3698952735320422	-0.01174532512315951	-0.005815244725938217	-0.1488326593406275	0.1318024788103927	0.02198339136164436	0.2764376460780479	12.1830840422936	-7.599581868818761	-3.730883827896541	-8.718240563243452	-545.8142357501707	-73.31922229470617	-1.643464374726599	3.024570685127685	0.7627776783644864	1.82011106718456	-7.595480259667264	-0.1877090898313108	-1.34204111605041	0.01297811165170955	-3.932002780845619	-3.932002780842316	-0.2908551405975322	0.01200108489838788	0.3871425150197992	-0.05884570271245523	-1.045707509091696e-08	-6.291352839351054e-08	1.107296181886641e-08	-3.930121262552288e-09	-1.290100228710555e-08	4.394368390917502e-08	-1.742356474193457e-08
1.02	-0.8035152772528693	-0.1633705425155346	0.6093557211999846	2.015348028126602	-0.3338897259400144	0.0500422196232712	-0.4363301006448944	1.08151399351526	1.081513993515261	0.000497775772391643	-0.1745287396652594	0.0009277592323759319	0.08679329285210875	-0.1006446157314386	0.0217837418175903	0.06877453385666013	-0.1396109223139677	-0.008159687196999126	-0.08869193457770724	-1.305179604611135e-05	-0.2486961510682542	-0.2486961510682313	-0.009772143614251584	7.085962420110638e-06	-0.02543852800791797	-0.01482744344066608	-0.3702076449510044	-0.01152742953391698	-0.005827058766989609	-0.1479791187747405	0.1313456945896867	0.02210559018457451	0.276586782897964	12.05927371871149	-7.654448779526973	-3.695323149169083	-8.834782568618579	-545.7060746624062	-73.25944806524321	-1.685892746225852	3.069715516253679	0.7703953585081461	1.81606896957378	-7.626642411666151	-0.2037968135195399	-1.353026103897901	-0.02404168901030497	-3.923053302793488	-3.923053302793652	-0.3099751048265839	-0.02277699905525402	0.3794991344945047	-0.07748174384082133	-9.566318354009254e-09	-7.077425299907058e-08	9.346918296766478e-09	-1.023475072344885e-08	-1.607497948251537e-08	5.463078441314505e-08	-2.00069919486904e-08
1.03	-0.8043692980929773	-0.1631142334553743	0.6101339439270699	2.013572122633518	-0.3339807003315721	0.04908825124069114	-0.4363301435997137	1.078831012644229	1.078831012644578	0.0003852231278648022	-0.1745286593141565	0.0006921274666198481	0.0866419008050394	-0.07014879670773173	0.02948593286036718	0.08684927307355246	-0.2155404315269306	-0.01002325140326042	-0.1020920531351097	3.390467984451319e-06	-0.2878799509425266	-0.2878799509425375	-0.01273520545542626	9.148539813296369e-06	-0.02170651562668688	-0.01544456058220757	-0.3700591028307477	-0.01125895359654728	-0.005829275610619923	-0.1471404426680126	0.1308928226571198	0.02226699933372802	0.2764540290450597	11.95837044337422	-7.729542244178098	-3.657467140897567	-8.9668528483852	-545.2510628116834	-73.21926247509836	-1.736320944923254	3.041125409749199	0.7713070271890055	1.800061757111214	-7.571646877292394	-0.1758354987048704	-1.332071436913241	0.01432662949745614	-3.913027967154777	-3.913027967159843	-0.2890141227349566	0.01172929860547324	0.3672447323394669	-0.05285417934862039	-8.672320255787561e-09	-7.862882182682721e-08	7.611849702779627e-09	-1.654296037294762e-08	-1.924199166526773e-08	6.530408366069528e-08	-2.258795405379848e-08
1.04	-0.8049180386799789	-0.1627806672747815	0.6110922911181971	2.011037813708069	-0.334089950220098	0.04800056833149123	-0.4363300542428246	1.075756796846973	1.075756796847671	0.0002431313851383359	-0.1745285520547822	0.0004932543131597338	0.08648453209054725	-0.03958856511122127	0.03723516590409071	0.1047994266650676	-0.2912916087871421	-0.01181478659054119	-0.1154348399025844	1.341054752983712e-05	-0.3269431363132209	-0.326943136313264	-0.01567996325548418	1.246761595909758e-05	-0.01808680554937057	-0.01602277692526131	-0.3699105607104959	-0.01099047765918343	-0.00583149245422315	-0.1463017665612684	0.1304399507245614	0.02242840848287785	0.2763212751921469	11.8539489818125	-7.805512448663386	-3.617765985899593	-9.12096803696004	-544.879839724153	-73.1774601656015	-1.795035981475903	3.082598030814454	0.7798037586974661	1.791151844498322	-7.590976021115876	-0.1893910097234325	-1.341559745912337	-0.02532612590738037	-3.898930402077869	-3.898930402077717	-0.3063142966032252	-0.02252569930472521	0.3570386737115315	-0.06970158414327272	-7.757452943771382e-09	-8.564608268186722e-08	5.793951714584251e-09	-2.214314193942628e-08	-2.209487706861065e-08	7.422464646865975e-08	-2.476987410698811e-08
